<svg xmlns="http://www.w3.org/2000/svg" viewBox="0 0 720.98 151.71"><g id="Capa_2" data-name="Capa 2"><g id="Capa_1-2" data-name="Capa 1"><path d="M0,.35H27l25.2,47.38h.41L77.5.35h27.11v97H87.5V19.39h-.28L57.78,75.8H45.73l-29-56.41h-.27V97.3H0Z" fill="#171e27"/><path d="M119.6.35h17.25V39.51h45.33V.35h17.25v97H182.18v-43H136.85v43H119.6Z" fill="#171e27"/><path d="M324.42,0H358.1a60.65,60.65,0,0,1,13.28,1.44,34.17,34.17,0,0,1,11.43,4.72,24.59,24.59,0,0,1,8,8.63,26.08,26.08,0,0,1,3,13q0,10.54-6,17.18t-16.23,9l25.88,43H376.72L354.26,55.87H341.67V96.94H324.42Zm31.35,41.76a49.81,49.81,0,0,0,7.4-.55,21.15,21.15,0,0,0,6.64-2.05,13,13,0,0,0,4.86-4.31,12.55,12.55,0,0,0,1.91-7.19,11,11,0,0,0-1.78-6.5,13.16,13.16,0,0,0-4.51-4,19,19,0,0,0-6.23-2.06,44.43,44.43,0,0,0-6.78-.55H341.67V41.76Z" fill="#171e27"/><path d="M410.26,0h17.25V96.94H410.26Z" fill="#171e27"/><path d="M441.14,81.39l52.72-66.27H442V.05H514.4V15.66l-53,66h53.81V97H441.14Z" fill="#171e27"/><path d="M524.17,48.26a51.54,51.54,0,0,1,3.71-20,44.07,44.07,0,0,1,10.29-15.18,45.61,45.61,0,0,1,15.64-9.64A55.9,55.9,0,0,1,573.55.05a56.82,56.82,0,0,1,19.94,3.39,46.14,46.14,0,0,1,15.76,9.64,43.42,43.42,0,0,1,10.36,15.18,51.54,51.54,0,0,1,3.72,20A50.84,50.84,0,0,1,619.61,68a45.43,45.43,0,0,1-10.36,15.37,46.89,46.89,0,0,1-15.76,10A54.05,54.05,0,0,1,573.55,97a53.18,53.18,0,0,1-19.74-3.59A45.47,45.47,0,0,1,527.88,68,50.84,50.84,0,0,1,524.17,48.26Zm17.85,0a39.08,39.08,0,0,0,2.28,13.62,31.71,31.71,0,0,0,6.51,10.75,29.92,29.92,0,0,0,10,7.1,31.5,31.5,0,0,0,12.83,2.54,32,32,0,0,0,12.9-2.54,29.67,29.67,0,0,0,10.1-7.1,31.71,31.71,0,0,0,6.51-10.75,39.08,39.08,0,0,0,2.28-13.62A37.86,37.86,0,0,0,603.19,35a32.4,32.4,0,0,0-6.45-10.68,29.87,29.87,0,0,0-10-7.17,31.85,31.85,0,0,0-13-2.6,31.35,31.35,0,0,0-13,2.6,30,30,0,0,0-10,7.17A32.4,32.4,0,0,0,544.3,35,37.86,37.86,0,0,0,542,48.26Z" fill="#171e27"/><path d="M635.54.05h22.87l45,72.57h.28V.05H721V97H699.07l-46-74.9h-.28V97H635.54Z" fill="#171e27"/><path d="M232.54,34.92A32.4,32.4,0,0,1,239,24.24a30,30,0,0,1,10-7.17,31.22,31.22,0,0,1,13-2.61,31.69,31.69,0,0,1,13,2.61,29.91,29.91,0,0,1,10,7.17,32.4,32.4,0,0,1,6.45,10.68,36.85,36.85,0,0,1,2.09,9.26h17.91a49.43,49.43,0,0,0-3.59-16A43.39,43.39,0,0,0,297.5,13a46.18,46.18,0,0,0-15.77-9.64A56.82,56.82,0,0,0,261.79,0a55.9,55.9,0,0,0-19.74,3.39A45.47,45.47,0,0,0,226.42,13a44,44,0,0,0-10.3,15.18,49.69,49.69,0,0,0-3.58,16h17.91A36.42,36.42,0,0,1,232.54,34.92Z" fill="#32a09c"/><path d="M291.44,61.83a31.83,31.83,0,0,1-6.52,10.75,29.67,29.67,0,0,1-10.1,7.1,32.17,32.17,0,0,1-12.9,2.54,31.66,31.66,0,0,1-12.83-2.54,29.78,29.78,0,0,1-10-7.1,31.67,31.67,0,0,1-6.52-10.75,36.7,36.7,0,0,1-2-9.07H212.58A49.22,49.22,0,0,0,216.12,68a45.52,45.52,0,0,0,25.93,25.41,53.18,53.18,0,0,0,19.74,3.58,54.05,54.05,0,0,0,19.94-3.58,47.08,47.08,0,0,0,15.77-10A45.44,45.44,0,0,0,307.85,68a48.65,48.65,0,0,0,3.54-15.19h-17.9A37.16,37.16,0,0,1,291.44,61.83Z" fill="#171e27"/><path d="M440.59,151.32V123.88h4.51v27.44Zm3.1-23.33v-4.11h15.17V128Zm0,11.29v-4h14v4Zm0,12V147.2h15.37v4.12Z" fill="#32a09c"/><path d="M467.56,151.32,478,136.66l3.1,2.62-8.47,12Zm20.23,0-8.07-12.23h-.83L468,123.88h5.33l8.11,11.52h.83l10.74,15.92Zm-5.17-13.13-3.1-2.63,8-11.68h5.06Z" fill="#32a09c"/><path d="M502.3,151.32V123.88h4.51v27.44ZM505.4,141v-3.92h6.86a5.26,5.26,0,0,0,2.49-.57,4.25,4.25,0,0,0,1.7-1.61,5.08,5.08,0,0,0,0-4.9,4.29,4.29,0,0,0-1.7-1.6,5.26,5.26,0,0,0-2.49-.57H505.4v-3.92h7.09a10,10,0,0,1,4.65,1.06,8.06,8.06,0,0,1,3.25,3,9.06,9.06,0,0,1,0,9,8.06,8.06,0,0,1-3.25,3,10,10,0,0,1-4.65,1.06Z" fill="#32a09c"/><path d="M531.55,151.32V123.88h4.51v27.44ZM534.64,128v-4.11h15.18V128Zm0,11.29v-4h14v4Zm0,12V147.2H550v4.12Z" fill="#32a09c"/><path d="M560.56,151.32V123.88h4.51v27.44Zm3.09-11.64V136h6.94a4.56,4.56,0,0,0,3.24-1.08,3.87,3.87,0,0,0,1.15-3,4,4,0,0,0-1.13-2.9,4.28,4.28,0,0,0-3.22-1.17h-7v-3.92h7.18a9.52,9.52,0,0,1,4.55,1,7.58,7.58,0,0,1,3,2.82,7.68,7.68,0,0,1,1.08,4.06,7.78,7.78,0,0,1-1.08,4.15,7.29,7.29,0,0,1-3,2.75,10.12,10.12,0,0,1-4.55,1Zm12,11.64L566,139.4l4.19-1.53,11.1,13.45Z" fill="#32a09c"/><path d="M590.51,151.32V123.88H595v27.44Z" fill="#32a09c"/><path d="M606.86,151.32V123.88h4.51v27.44ZM610,128v-4.11h15.18V128Zm0,11.29v-4h14v4Zm0,12V147.2h15.37v4.12Z" fill="#32a09c"/><path d="M635.87,151.32V123.88H639l1.37,5.17v22.27Zm19,0-16.42-21.44.55-6,16.42,21.44Zm0,0-1.37-4.82V123.88H658v27.44Z" fill="#32a09c"/><path d="M682.33,151.71a13.85,13.85,0,0,1-5.51-1.08,13.21,13.21,0,0,1-4.41-3,13.64,13.64,0,0,1-2.9-4.51,15.39,15.39,0,0,1,0-11,13.35,13.35,0,0,1,2.9-4.49,13.85,13.85,0,0,1,4.41-3,13.69,13.69,0,0,1,5.51-1.09,13.93,13.93,0,0,1,5.76,1.09,14.65,14.65,0,0,1,4.31,3l-3.06,3.06a8.39,8.39,0,0,0-3-2.08,10.34,10.34,0,0,0-4-.74,9.57,9.57,0,0,0-3.73.7,8.5,8.5,0,0,0-2.92,2,9.15,9.15,0,0,0-1.9,3.12,12,12,0,0,0,0,7.92,9,9,0,0,0,1.9,3.11,8.37,8.37,0,0,0,2.92,2,9.4,9.4,0,0,0,3.73.71,10.38,10.38,0,0,0,4.25-.77,8.51,8.51,0,0,0,3-2.09l3.06,3.06a13.75,13.75,0,0,1-4.43,3A14.52,14.52,0,0,1,682.33,151.71Z" fill="#32a09c"/><path d="M702.52,151.32V123.88H707v27.44ZM705.61,128v-4.11h15.18V128Zm0,11.29v-4h14v4Zm0,12V147.2H721v4.12Z" fill="#32a09c"/></g></g></svg>