<svg xmlns="http://www.w3.org/2000/svg" viewBox="212 0 96 98" width="100%" height="100%">
  <path d="M232.54,34.92A32.4,32.4,0,0,1,239,24.24a30,30,0,0,1,10-7.17,31.22,31.22,0,0,1,13-2.61,31.69,31.69,0,0,1,13,2.61,29.91,29.91,0,0,1,10,7.17,32.4,32.4,0,0,1,6.45,10.68,36.85,36.85,0,0,1,2.09,9.26h17.91a49.43,49.43,0,0,0-3.59-16A43.39,43.39,0,0,0,297.5,13a46.18,46.18,0,0,0-15.77-9.64A56.82,56.82,0,0,0,261.79,0a55.9,55.9,0,0,0-19.74,3.39A45.47,45.47,0,0,0,226.42,13a44,44,0,0,0-10.3,15.18,49.69,49.69,0,0,0-3.58,16h17.91A36.42,36.42,0,0,1,232.54,34.92Z" fill="#32a09c"/>
  
  <path d="M291.44,61.83a31.83,31.83,0,0,1-6.52,10.75,29.67,29.67,0,0,1-10.1,7.1,32.17,32.17,0,0,1-12.9,2.54,31.66,31.66,0,0,1-12.83-2.54,29.78,29.78,0,0,1-10-7.1,31.67,31.67,0,0,1-6.52-10.75,36.7,36.7,0,0,1-2-9.07H212.58A49.22,49.22,0,0,0,216.12,68a45.52,45.52,0,0,0,25.93,25.41,53.18,53.18,0,0,0,19.74,3.58,54.05,54.05,0,0,0,19.94-3.58,47.08,47.08,0,0,0,15.77-10A45.44,45.44,0,0,0,307.85,68a48.65,48.65,0,0,0,3.54-15.19h-17.9A37.16,37.16,0,0,1,291.44,61.83Z" fill="#171e27"/>
</svg>
